<mxfile host="app.diagrams.net" modified="2021-11-13T01:56:49.014Z" agent="5.0 (Windows NT 10.0; Win64; x64) AppleWebKit/537.36 (KHTML, like Gecko) Chrome/95.0.4638.69 Safari/537.36" etag="6gqSD7PMWUrw2OX1iINX" version="15.6.8" type="github">
  <diagram id="C5RBs43oDa-KdzZeNtuy" name="Page-1">
    <mxGraphModel dx="1108" dy="656" grid="1" gridSize="10" guides="1" tooltips="1" connect="1" arrows="1" fold="1" page="1" pageScale="1" pageWidth="827" pageHeight="1169" math="0" shadow="0">
      <root>
        <mxCell id="WIyWlLk6GJQsqaUBKTNV-0" />
        <mxCell id="WIyWlLk6GJQsqaUBKTNV-1" parent="WIyWlLk6GJQsqaUBKTNV-0" />
        <mxCell id="kO_gFMqoITnLHff5pnct-0" value="Start" style="ellipse;whiteSpace=wrap;html=1;" vertex="1" parent="WIyWlLk6GJQsqaUBKTNV-1">
          <mxGeometry x="340" y="60" width="120" height="80" as="geometry" />
        </mxCell>
        <mxCell id="kO_gFMqoITnLHff5pnct-1" value="Get a number n" style="rounded=1;whiteSpace=wrap;html=1;" vertex="1" parent="WIyWlLk6GJQsqaUBKTNV-1">
          <mxGeometry x="340" y="180" width="120" height="60" as="geometry" />
        </mxCell>
        <mxCell id="kO_gFMqoITnLHff5pnct-2" value="Is n &amp;lt;= 1" style="rhombus;whiteSpace=wrap;html=1;" vertex="1" parent="WIyWlLk6GJQsqaUBKTNV-1">
          <mxGeometry x="360" y="290" width="80" height="80" as="geometry" />
        </mxCell>
        <mxCell id="kO_gFMqoITnLHff5pnct-3" value="n is not prime" style="rounded=1;whiteSpace=wrap;html=1;" vertex="1" parent="WIyWlLk6GJQsqaUBKTNV-1">
          <mxGeometry x="570" y="300" width="120" height="60" as="geometry" />
        </mxCell>
        <mxCell id="kO_gFMqoITnLHff5pnct-4" value="yes" style="endArrow=classic;html=1;rounded=0;exitX=1;exitY=0.5;exitDx=0;exitDy=0;entryX=0;entryY=0.5;entryDx=0;entryDy=0;" edge="1" parent="WIyWlLk6GJQsqaUBKTNV-1" source="kO_gFMqoITnLHff5pnct-2" target="kO_gFMqoITnLHff5pnct-3">
          <mxGeometry width="50" height="50" relative="1" as="geometry">
            <mxPoint x="440" y="360" as="sourcePoint" />
            <mxPoint x="490" y="310" as="targetPoint" />
          </mxGeometry>
        </mxCell>
        <mxCell id="kO_gFMqoITnLHff5pnct-5" value="is n &amp;lt;= 3" style="rhombus;whiteSpace=wrap;html=1;" vertex="1" parent="WIyWlLk6GJQsqaUBKTNV-1">
          <mxGeometry x="360" y="400" width="80" height="80" as="geometry" />
        </mxCell>
        <mxCell id="kO_gFMqoITnLHff5pnct-6" value="no" style="endArrow=classic;html=1;rounded=0;exitX=0.5;exitY=1;exitDx=0;exitDy=0;entryX=0.5;entryY=0;entryDx=0;entryDy=0;" edge="1" parent="WIyWlLk6GJQsqaUBKTNV-1" source="kO_gFMqoITnLHff5pnct-2" target="kO_gFMqoITnLHff5pnct-5">
          <mxGeometry width="50" height="50" relative="1" as="geometry">
            <mxPoint x="390" y="400" as="sourcePoint" />
            <mxPoint x="440" y="350" as="targetPoint" />
          </mxGeometry>
        </mxCell>
        <mxCell id="kO_gFMqoITnLHff5pnct-7" value="" style="endArrow=classic;html=1;rounded=0;exitX=0.5;exitY=1;exitDx=0;exitDy=0;entryX=0.5;entryY=0;entryDx=0;entryDy=0;" edge="1" parent="WIyWlLk6GJQsqaUBKTNV-1" source="kO_gFMqoITnLHff5pnct-1" target="kO_gFMqoITnLHff5pnct-2">
          <mxGeometry width="50" height="50" relative="1" as="geometry">
            <mxPoint x="390" y="280" as="sourcePoint" />
            <mxPoint x="440" y="230" as="targetPoint" />
          </mxGeometry>
        </mxCell>
        <mxCell id="kO_gFMqoITnLHff5pnct-8" value="" style="endArrow=classic;html=1;rounded=0;exitX=0.5;exitY=1;exitDx=0;exitDy=0;entryX=0.5;entryY=0;entryDx=0;entryDy=0;" edge="1" parent="WIyWlLk6GJQsqaUBKTNV-1" source="kO_gFMqoITnLHff5pnct-0" target="kO_gFMqoITnLHff5pnct-1">
          <mxGeometry width="50" height="50" relative="1" as="geometry">
            <mxPoint x="390" y="170" as="sourcePoint" />
            <mxPoint x="440" y="120" as="targetPoint" />
          </mxGeometry>
        </mxCell>
        <mxCell id="kO_gFMqoITnLHff5pnct-9" value="n is prime" style="rounded=1;whiteSpace=wrap;html=1;" vertex="1" parent="WIyWlLk6GJQsqaUBKTNV-1">
          <mxGeometry x="520" y="410" width="120" height="60" as="geometry" />
        </mxCell>
        <mxCell id="kO_gFMqoITnLHff5pnct-10" value="yes" style="endArrow=classic;html=1;rounded=0;exitX=1;exitY=0.5;exitDx=0;exitDy=0;entryX=0;entryY=0.5;entryDx=0;entryDy=0;" edge="1" parent="WIyWlLk6GJQsqaUBKTNV-1" source="kO_gFMqoITnLHff5pnct-5" target="kO_gFMqoITnLHff5pnct-9">
          <mxGeometry width="50" height="50" relative="1" as="geometry">
            <mxPoint x="450" y="470" as="sourcePoint" />
            <mxPoint x="500" y="420" as="targetPoint" />
          </mxGeometry>
        </mxCell>
        <mxCell id="kO_gFMqoITnLHff5pnct-11" value="set i = 2" style="rounded=1;whiteSpace=wrap;html=1;" vertex="1" parent="WIyWlLk6GJQsqaUBKTNV-1">
          <mxGeometry x="340" y="520" width="120" height="60" as="geometry" />
        </mxCell>
        <mxCell id="kO_gFMqoITnLHff5pnct-12" value="" style="endArrow=classic;html=1;rounded=0;exitX=0.5;exitY=1;exitDx=0;exitDy=0;" edge="1" parent="WIyWlLk6GJQsqaUBKTNV-1" source="kO_gFMqoITnLHff5pnct-5" target="kO_gFMqoITnLHff5pnct-11">
          <mxGeometry width="50" height="50" relative="1" as="geometry">
            <mxPoint x="400" y="510" as="sourcePoint" />
            <mxPoint x="450" y="460" as="targetPoint" />
          </mxGeometry>
        </mxCell>
        <mxCell id="kO_gFMqoITnLHff5pnct-13" value="is i*i &amp;lt;= n" style="rhombus;whiteSpace=wrap;html=1;" vertex="1" parent="WIyWlLk6GJQsqaUBKTNV-1">
          <mxGeometry x="360" y="650" width="80" height="80" as="geometry" />
        </mxCell>
        <mxCell id="kO_gFMqoITnLHff5pnct-14" value="is n%i == 0" style="rhombus;whiteSpace=wrap;html=1;" vertex="1" parent="WIyWlLk6GJQsqaUBKTNV-1">
          <mxGeometry x="360" y="780" width="80" height="80" as="geometry" />
        </mxCell>
        <mxCell id="kO_gFMqoITnLHff5pnct-15" value="n is not prime" style="rounded=1;whiteSpace=wrap;html=1;" vertex="1" parent="WIyWlLk6GJQsqaUBKTNV-1">
          <mxGeometry x="590" y="790" width="120" height="60" as="geometry" />
        </mxCell>
        <mxCell id="kO_gFMqoITnLHff5pnct-16" value="set i = i + 1" style="rounded=1;whiteSpace=wrap;html=1;" vertex="1" parent="WIyWlLk6GJQsqaUBKTNV-1">
          <mxGeometry x="354" y="910" width="120" height="60" as="geometry" />
        </mxCell>
        <mxCell id="kO_gFMqoITnLHff5pnct-17" value="yes" style="endArrow=classic;html=1;rounded=0;exitX=1;exitY=0.5;exitDx=0;exitDy=0;entryX=0;entryY=0.5;entryDx=0;entryDy=0;" edge="1" parent="WIyWlLk6GJQsqaUBKTNV-1" source="kO_gFMqoITnLHff5pnct-14" target="kO_gFMqoITnLHff5pnct-15">
          <mxGeometry width="50" height="50" relative="1" as="geometry">
            <mxPoint x="450" y="830" as="sourcePoint" />
            <mxPoint x="500" y="780" as="targetPoint" />
          </mxGeometry>
        </mxCell>
        <mxCell id="kO_gFMqoITnLHff5pnct-18" value="" style="endArrow=classic;html=1;rounded=0;exitX=0.5;exitY=1;exitDx=0;exitDy=0;entryX=0.5;entryY=0;entryDx=0;entryDy=0;" edge="1" parent="WIyWlLk6GJQsqaUBKTNV-1" source="kO_gFMqoITnLHff5pnct-11" target="kO_gFMqoITnLHff5pnct-13">
          <mxGeometry width="50" height="50" relative="1" as="geometry">
            <mxPoint x="380" y="620" as="sourcePoint" />
            <mxPoint x="430" y="570" as="targetPoint" />
          </mxGeometry>
        </mxCell>
        <mxCell id="kO_gFMqoITnLHff5pnct-19" value="yes" style="endArrow=classic;html=1;rounded=0;exitX=0.5;exitY=1;exitDx=0;exitDy=0;" edge="1" parent="WIyWlLk6GJQsqaUBKTNV-1" source="kO_gFMqoITnLHff5pnct-13" target="kO_gFMqoITnLHff5pnct-14">
          <mxGeometry width="50" height="50" relative="1" as="geometry">
            <mxPoint x="380" y="780" as="sourcePoint" />
            <mxPoint x="430" y="730" as="targetPoint" />
          </mxGeometry>
        </mxCell>
        <mxCell id="kO_gFMqoITnLHff5pnct-20" value="n is prime" style="rounded=1;whiteSpace=wrap;html=1;" vertex="1" parent="WIyWlLk6GJQsqaUBKTNV-1">
          <mxGeometry x="580" y="660" width="120" height="60" as="geometry" />
        </mxCell>
        <mxCell id="kO_gFMqoITnLHff5pnct-21" value="" style="endArrow=classic;html=1;rounded=0;exitX=1;exitY=0.5;exitDx=0;exitDy=0;entryX=0;entryY=0.5;entryDx=0;entryDy=0;" edge="1" parent="WIyWlLk6GJQsqaUBKTNV-1" source="kO_gFMqoITnLHff5pnct-13" target="kO_gFMqoITnLHff5pnct-20">
          <mxGeometry width="50" height="50" relative="1" as="geometry">
            <mxPoint x="470" y="720" as="sourcePoint" />
            <mxPoint x="520" y="670" as="targetPoint" />
          </mxGeometry>
        </mxCell>
        <mxCell id="kO_gFMqoITnLHff5pnct-24" value="no" style="edgeLabel;html=1;align=center;verticalAlign=middle;resizable=0;points=[];" vertex="1" connectable="0" parent="kO_gFMqoITnLHff5pnct-21">
          <mxGeometry x="-0.4857" y="2" relative="1" as="geometry">
            <mxPoint as="offset" />
          </mxGeometry>
        </mxCell>
        <mxCell id="kO_gFMqoITnLHff5pnct-22" value="no" style="endArrow=classic;html=1;rounded=0;exitX=0.5;exitY=1;exitDx=0;exitDy=0;entryX=0.383;entryY=0;entryDx=0;entryDy=0;entryPerimeter=0;" edge="1" parent="WIyWlLk6GJQsqaUBKTNV-1" source="kO_gFMqoITnLHff5pnct-14" target="kO_gFMqoITnLHff5pnct-16">
          <mxGeometry width="50" height="50" relative="1" as="geometry">
            <mxPoint x="400" y="900" as="sourcePoint" />
            <mxPoint x="450" y="850" as="targetPoint" />
          </mxGeometry>
        </mxCell>
        <mxCell id="kO_gFMqoITnLHff5pnct-23" value="+" style="endArrow=classic;html=1;rounded=0;entryX=0;entryY=0.5;entryDx=0;entryDy=0;" edge="1" parent="WIyWlLk6GJQsqaUBKTNV-1" target="kO_gFMqoITnLHff5pnct-13">
          <mxGeometry width="50" height="50" relative="1" as="geometry">
            <mxPoint x="350" y="950" as="sourcePoint" />
            <mxPoint x="290" y="720" as="targetPoint" />
            <Array as="points">
              <mxPoint x="260" y="950" />
              <mxPoint x="260" y="690" />
            </Array>
          </mxGeometry>
        </mxCell>
        <mxCell id="kO_gFMqoITnLHff5pnct-25" value="&lt;h1&gt;J1173-1 C101 Flowchart&lt;/h1&gt;" style="text;html=1;strokeColor=none;fillColor=none;spacing=5;spacingTop=-20;whiteSpace=wrap;overflow=hidden;rounded=0;" vertex="1" parent="WIyWlLk6GJQsqaUBKTNV-1">
          <mxGeometry x="20" y="20" width="190" height="120" as="geometry" />
        </mxCell>
        <mxCell id="kO_gFMqoITnLHff5pnct-28" value="Start" style="ellipse;whiteSpace=wrap;html=1;" vertex="1" parent="WIyWlLk6GJQsqaUBKTNV-1">
          <mxGeometry x="375" y="1190" width="120" height="80" as="geometry" />
        </mxCell>
        <mxCell id="kO_gFMqoITnLHff5pnct-29" value="Get a number n" style="rounded=1;whiteSpace=wrap;html=1;" vertex="1" parent="WIyWlLk6GJQsqaUBKTNV-1">
          <mxGeometry x="375" y="1310" width="120" height="60" as="geometry" />
        </mxCell>
        <mxCell id="kO_gFMqoITnLHff5pnct-30" value="Is n &amp;lt;= 1" style="rhombus;whiteSpace=wrap;html=1;" vertex="1" parent="WIyWlLk6GJQsqaUBKTNV-1">
          <mxGeometry x="395" y="1470" width="80" height="80" as="geometry" />
        </mxCell>
        <mxCell id="kO_gFMqoITnLHff5pnct-32" value="yes" style="endArrow=classic;html=1;rounded=0;exitX=1;exitY=0.5;exitDx=0;exitDy=0;entryX=1;entryY=0.5;entryDx=0;entryDy=0;" edge="1" parent="WIyWlLk6GJQsqaUBKTNV-1" source="kO_gFMqoITnLHff5pnct-30" target="kO_gFMqoITnLHff5pnct-54">
          <mxGeometry width="50" height="50" relative="1" as="geometry">
            <mxPoint x="475" y="1540" as="sourcePoint" />
            <mxPoint x="650" y="1510" as="targetPoint" />
            <Array as="points">
              <mxPoint x="620" y="1510" />
              <mxPoint x="620" y="1420" />
            </Array>
          </mxGeometry>
        </mxCell>
        <mxCell id="kO_gFMqoITnLHff5pnct-33" value="is n &amp;lt;= 3" style="rhombus;whiteSpace=wrap;html=1;" vertex="1" parent="WIyWlLk6GJQsqaUBKTNV-1">
          <mxGeometry x="395" y="1580" width="80" height="80" as="geometry" />
        </mxCell>
        <mxCell id="kO_gFMqoITnLHff5pnct-34" value="no" style="endArrow=classic;html=1;rounded=0;exitX=0.5;exitY=1;exitDx=0;exitDy=0;entryX=0.5;entryY=0;entryDx=0;entryDy=0;" edge="1" parent="WIyWlLk6GJQsqaUBKTNV-1" source="kO_gFMqoITnLHff5pnct-30" target="kO_gFMqoITnLHff5pnct-33">
          <mxGeometry width="50" height="50" relative="1" as="geometry">
            <mxPoint x="425" y="1580" as="sourcePoint" />
            <mxPoint x="475" y="1530" as="targetPoint" />
          </mxGeometry>
        </mxCell>
        <mxCell id="kO_gFMqoITnLHff5pnct-36" value="" style="endArrow=classic;html=1;rounded=0;exitX=0.5;exitY=1;exitDx=0;exitDy=0;entryX=0.5;entryY=0;entryDx=0;entryDy=0;" edge="1" parent="WIyWlLk6GJQsqaUBKTNV-1" source="kO_gFMqoITnLHff5pnct-28" target="kO_gFMqoITnLHff5pnct-29">
          <mxGeometry width="50" height="50" relative="1" as="geometry">
            <mxPoint x="425" y="1350" as="sourcePoint" />
            <mxPoint x="475" y="1300" as="targetPoint" />
          </mxGeometry>
        </mxCell>
        <mxCell id="kO_gFMqoITnLHff5pnct-37" value="n is the next prime number" style="rounded=1;whiteSpace=wrap;html=1;" vertex="1" parent="WIyWlLk6GJQsqaUBKTNV-1">
          <mxGeometry x="555" y="1590" width="120" height="60" as="geometry" />
        </mxCell>
        <mxCell id="kO_gFMqoITnLHff5pnct-38" value="yes" style="endArrow=classic;html=1;rounded=0;exitX=1;exitY=0.5;exitDx=0;exitDy=0;entryX=0;entryY=0.5;entryDx=0;entryDy=0;" edge="1" parent="WIyWlLk6GJQsqaUBKTNV-1" source="kO_gFMqoITnLHff5pnct-33" target="kO_gFMqoITnLHff5pnct-37">
          <mxGeometry width="50" height="50" relative="1" as="geometry">
            <mxPoint x="485" y="1650" as="sourcePoint" />
            <mxPoint x="535" y="1600" as="targetPoint" />
          </mxGeometry>
        </mxCell>
        <mxCell id="kO_gFMqoITnLHff5pnct-39" value="set i = 2" style="rounded=1;whiteSpace=wrap;html=1;" vertex="1" parent="WIyWlLk6GJQsqaUBKTNV-1">
          <mxGeometry x="375" y="1700" width="120" height="60" as="geometry" />
        </mxCell>
        <mxCell id="kO_gFMqoITnLHff5pnct-40" value="" style="endArrow=classic;html=1;rounded=0;exitX=0.5;exitY=1;exitDx=0;exitDy=0;" edge="1" parent="WIyWlLk6GJQsqaUBKTNV-1" source="kO_gFMqoITnLHff5pnct-33" target="kO_gFMqoITnLHff5pnct-39">
          <mxGeometry width="50" height="50" relative="1" as="geometry">
            <mxPoint x="435" y="1690" as="sourcePoint" />
            <mxPoint x="485" y="1640" as="targetPoint" />
          </mxGeometry>
        </mxCell>
        <mxCell id="kO_gFMqoITnLHff5pnct-41" value="is i*i &amp;lt;= n" style="rhombus;whiteSpace=wrap;html=1;" vertex="1" parent="WIyWlLk6GJQsqaUBKTNV-1">
          <mxGeometry x="395" y="1830" width="80" height="80" as="geometry" />
        </mxCell>
        <mxCell id="kO_gFMqoITnLHff5pnct-42" value="is n%i == 0" style="rhombus;whiteSpace=wrap;html=1;" vertex="1" parent="WIyWlLk6GJQsqaUBKTNV-1">
          <mxGeometry x="395" y="1960" width="80" height="80" as="geometry" />
        </mxCell>
        <mxCell id="kO_gFMqoITnLHff5pnct-44" value="set i = i + 1" style="rounded=1;whiteSpace=wrap;html=1;" vertex="1" parent="WIyWlLk6GJQsqaUBKTNV-1">
          <mxGeometry x="389" y="2090" width="120" height="60" as="geometry" />
        </mxCell>
        <mxCell id="kO_gFMqoITnLHff5pnct-45" value="yes" style="endArrow=classic;html=1;rounded=0;exitX=1;exitY=0.5;exitDx=0;exitDy=0;entryX=1;entryY=0.5;entryDx=0;entryDy=0;" edge="1" parent="WIyWlLk6GJQsqaUBKTNV-1" source="kO_gFMqoITnLHff5pnct-42" target="kO_gFMqoITnLHff5pnct-54">
          <mxGeometry width="50" height="50" relative="1" as="geometry">
            <mxPoint x="485" y="2010" as="sourcePoint" />
            <mxPoint x="780" y="1550" as="targetPoint" />
            <Array as="points">
              <mxPoint x="790" y="2000" />
              <mxPoint x="790" y="1420" />
            </Array>
          </mxGeometry>
        </mxCell>
        <mxCell id="kO_gFMqoITnLHff5pnct-46" value="" style="endArrow=classic;html=1;rounded=0;exitX=0.5;exitY=1;exitDx=0;exitDy=0;entryX=0.5;entryY=0;entryDx=0;entryDy=0;" edge="1" parent="WIyWlLk6GJQsqaUBKTNV-1" source="kO_gFMqoITnLHff5pnct-39" target="kO_gFMqoITnLHff5pnct-41">
          <mxGeometry width="50" height="50" relative="1" as="geometry">
            <mxPoint x="415" y="1800" as="sourcePoint" />
            <mxPoint x="465" y="1750" as="targetPoint" />
          </mxGeometry>
        </mxCell>
        <mxCell id="kO_gFMqoITnLHff5pnct-47" value="yes" style="endArrow=classic;html=1;rounded=0;exitX=0.5;exitY=1;exitDx=0;exitDy=0;" edge="1" parent="WIyWlLk6GJQsqaUBKTNV-1" source="kO_gFMqoITnLHff5pnct-41" target="kO_gFMqoITnLHff5pnct-42">
          <mxGeometry width="50" height="50" relative="1" as="geometry">
            <mxPoint x="415" y="1960" as="sourcePoint" />
            <mxPoint x="465" y="1910" as="targetPoint" />
          </mxGeometry>
        </mxCell>
        <mxCell id="kO_gFMqoITnLHff5pnct-48" value="n is the next prime number" style="rounded=1;whiteSpace=wrap;html=1;" vertex="1" parent="WIyWlLk6GJQsqaUBKTNV-1">
          <mxGeometry x="615" y="1840" width="120" height="60" as="geometry" />
        </mxCell>
        <mxCell id="kO_gFMqoITnLHff5pnct-49" value="" style="endArrow=classic;html=1;rounded=0;exitX=1;exitY=0.5;exitDx=0;exitDy=0;entryX=0;entryY=0.5;entryDx=0;entryDy=0;" edge="1" parent="WIyWlLk6GJQsqaUBKTNV-1" source="kO_gFMqoITnLHff5pnct-41" target="kO_gFMqoITnLHff5pnct-48">
          <mxGeometry width="50" height="50" relative="1" as="geometry">
            <mxPoint x="505" y="1900" as="sourcePoint" />
            <mxPoint x="555" y="1850" as="targetPoint" />
          </mxGeometry>
        </mxCell>
        <mxCell id="kO_gFMqoITnLHff5pnct-50" value="no" style="edgeLabel;html=1;align=center;verticalAlign=middle;resizable=0;points=[];" vertex="1" connectable="0" parent="kO_gFMqoITnLHff5pnct-49">
          <mxGeometry x="-0.4857" y="2" relative="1" as="geometry">
            <mxPoint as="offset" />
          </mxGeometry>
        </mxCell>
        <mxCell id="kO_gFMqoITnLHff5pnct-51" value="no" style="endArrow=classic;html=1;rounded=0;exitX=0.5;exitY=1;exitDx=0;exitDy=0;entryX=0.383;entryY=0;entryDx=0;entryDy=0;entryPerimeter=0;" edge="1" parent="WIyWlLk6GJQsqaUBKTNV-1" source="kO_gFMqoITnLHff5pnct-42" target="kO_gFMqoITnLHff5pnct-44">
          <mxGeometry width="50" height="50" relative="1" as="geometry">
            <mxPoint x="435" y="2080" as="sourcePoint" />
            <mxPoint x="485" y="2030" as="targetPoint" />
          </mxGeometry>
        </mxCell>
        <mxCell id="kO_gFMqoITnLHff5pnct-52" value="yes" style="endArrow=classic;html=1;rounded=0;entryX=0;entryY=0.5;entryDx=0;entryDy=0;" edge="1" parent="WIyWlLk6GJQsqaUBKTNV-1" target="kO_gFMqoITnLHff5pnct-41">
          <mxGeometry width="50" height="50" relative="1" as="geometry">
            <mxPoint x="385" y="2130" as="sourcePoint" />
            <mxPoint x="325" y="1900" as="targetPoint" />
            <Array as="points">
              <mxPoint x="295" y="2130" />
              <mxPoint x="295" y="2000" />
              <mxPoint x="295" y="1870" />
            </Array>
          </mxGeometry>
        </mxCell>
        <mxCell id="kO_gFMqoITnLHff5pnct-53" value="&lt;h1&gt;J1173-1 C102 Flowchart&lt;/h1&gt;" style="text;html=1;strokeColor=none;fillColor=none;spacing=5;spacingTop=-20;whiteSpace=wrap;overflow=hidden;rounded=0;" vertex="1" parent="WIyWlLk6GJQsqaUBKTNV-1">
          <mxGeometry x="55" y="1200" width="190" height="120" as="geometry" />
        </mxCell>
        <mxCell id="kO_gFMqoITnLHff5pnct-54" value="set n = n + 1" style="rounded=1;whiteSpace=wrap;html=1;" vertex="1" parent="WIyWlLk6GJQsqaUBKTNV-1">
          <mxGeometry x="375" y="1390" width="120" height="60" as="geometry" />
        </mxCell>
        <mxCell id="kO_gFMqoITnLHff5pnct-55" value="" style="endArrow=classic;html=1;rounded=0;exitX=0.5;exitY=1;exitDx=0;exitDy=0;entryX=0.5;entryY=0;entryDx=0;entryDy=0;" edge="1" parent="WIyWlLk6GJQsqaUBKTNV-1" source="kO_gFMqoITnLHff5pnct-54" target="kO_gFMqoITnLHff5pnct-30">
          <mxGeometry width="50" height="50" relative="1" as="geometry">
            <mxPoint x="390" y="1500" as="sourcePoint" />
            <mxPoint x="440" y="1450" as="targetPoint" />
          </mxGeometry>
        </mxCell>
        <mxCell id="kO_gFMqoITnLHff5pnct-56" value="" style="endArrow=classic;html=1;rounded=0;exitX=0.5;exitY=1;exitDx=0;exitDy=0;entryX=0.5;entryY=0;entryDx=0;entryDy=0;" edge="1" parent="WIyWlLk6GJQsqaUBKTNV-1" source="kO_gFMqoITnLHff5pnct-29" target="kO_gFMqoITnLHff5pnct-54">
          <mxGeometry width="50" height="50" relative="1" as="geometry">
            <mxPoint x="150" y="1470" as="sourcePoint" />
            <mxPoint x="200" y="1420" as="targetPoint" />
          </mxGeometry>
        </mxCell>
      </root>
    </mxGraphModel>
  </diagram>
</mxfile>
